# xmcd
#
# Track frame offsets:
# 150
# 11764
# 26279
# 35784
# 61023
# 75473
# 93603
# 104780
# 121030
# 133846
# 150699
# 164377
# 178779
# 190415
#
# Disc length: 2701 seconds
#
# Revision: 0
# Processed by: cddbd v1.5.2PL0 Copyright (c) Steve Scherf et al.
# Submitted via: Audion 3.0.2 (http://www.panic.com/audion/)
#
DISCID=b70a8b0e
DTITLE=The Tennessee Four - Sweet Memories
DYEAR=1900
DGENRE=
TTITLE0=Only You
TTITLE1=So Much In Love
TTITLE2=It's Only Make Believe
TTITLE3=Sweet Memories
TTITLE4=King of Babylon
TTITLE5=You Don't Know Me
TTITLE6=Sixteen Candles
TTITLE7=She Thinks I Still Care
TTITLE8=Don't Let Her Go
TTITLE9=The Water Is Wide
TTITLE10=My Girl
TTITLE11=Unchained Melody
TTITLE12=Java Jive
TTITLE13=America The Beautiful
EXTD=
EXTT0=
EXTT1=
EXTT2=
EXTT3=
EXTT4=
EXTT5=
EXTT6=
EXTT7=
EXTT8=
EXTT9=
EXTT10=
EXTT11=
EXTT12=
EXTT13=
PLAYORDER=
